<?xml version="1.0" standalone="no"?>
<!DOCTYPE svg PUBLIC "-//W3C//DTD SVG 20010904//EN"
 "http://www.w3.org/TR/2001/REC-SVG-20010904/DTD/svg10.dtd">
<svg version="1.0" xmlns="http://www.w3.org/2000/svg"
 width="630.000000pt" height="500.000000pt" viewBox="0 0 630.000000 500.000000"
 preserveAspectRatio="xMidYMid meet">

<g transform="translate(0.000000,500.000000) scale(0.100000,-0.100000)"
fill="#000000" stroke="none">
<path d="M0 2500 l0 -2500 3150 0 3150 0 0 2500 0 2500 -3150 0 -3150 0 0
-2500z m1064 423 c37 -203 71 -379 75 -393 8 -24 9 -24 15 10 4 19 40 195 79
390 l72 355 151 3 151 3 7 -303 c8 -366 5 -889 -4 -833 -4 22 -8 34 -9 28 -1
-9 -23 -13 -75 -13 -66 0 -75 2 -89 23 -12 18 -17 86 -26 327 -6 166 -12 304
-14 306 -3 3 -127 -655 -130 -693 -1 -11 -6 -19 -11 -16 -4 3 -5 19 -2 35 3
18 2 27 -4 23 -6 -3 -10 -15 -10 -25 0 -10 -5 -22 -10 -25 -13 -8 -13 21 1 47
6 11 9 22 6 24 -2 3 -12 -10 -20 -28 -10 -20 -17 -26 -17 -15 0 15 -11 17 -79
17 -55 0 -81 -4 -84 -12 -2 -7 -2 -2 0 10 2 13 0 21 -5 18 -6 -3 -12 4 -15 17
-12 52 -67 334 -93 477 -29 153 -29 154 -36 100 -3 -30 -7 -134 -8 -230 -2
-167 -15 -417 -18 -375 -5 48 -19 43 -16 -7 2 -45 2 -48 -5 -18 -6 23 -9 28
-11 15 -2 -15 -4 -12 -10 10 -7 28 -8 27 -10 -15 -2 -34 -4 -38 -7 -17 -4 27
-7 29 -49 25 -25 -2 -45 1 -45 7 -1 5 -5 -6 -9 -25 l-7 -35 -2 43 c0 23 -5 42
-11 42 -12 0 -13 326 -3 783 l6 307 157 0 156 0 68 -367z m4028 -5 l3 -373
115 177 115 178 148 0 c116 0 147 -3 141 -12 -5 -7 -59 -91 -122 -186 -62 -96
-115 -179 -118 -186 -3 -7 15 -57 40 -110 26 -54 46 -101 46 -104 1 -4 9 -25
20 -47 11 -22 19 -47 20 -55 0 -9 6 -22 13 -29 10 -11 7 -12 -13 -6 -25 8 -25
8 -6 -14 20 -22 18 -25 -8 -15 -9 3 -16 10 -16 16 0 5 -7 16 -15 24 -8 9 -15
11 -15 5 0 -7 -30 -11 -80 -11 -65 0 -81 3 -89 18 -10 16 -10 16 -11 0 0 -9 5
-20 10 -23 6 -3 10 -11 10 -18 0 -30 -51 72 -64 128 -1 6 -7 19 -13 30 -6 11
-16 37 -22 58 -7 20 -19 37 -27 37 -8 0 -14 -4 -14 -9 0 -5 -12 -24 -27 -41
-25 -30 -27 -38 -26 -129 0 -53 -1 -79 -4 -58 -4 39 -22 42 -24 4 0 -12 -3
-16 -6 -9 -6 14 -33 16 -33 2 0 -14 -37 -12 -44 3 -5 9 -7 9 -12 0 -4 -10 -9
-10 -20 1 -7 8 -22 13 -31 11 -10 -2 -21 -4 -25 -4 -5 -1 -8 -9 -8 -18 -1 -16
-2 -16 -15 1 -15 19 -15 19 -15 -1 0 -12 -4 -24 -8 -27 -15 -9 -30 1143 -15
1157 3 4 64 7 135 7 l128 0 2 -372z m-2810 -28 c65 -24 122 -77 152 -140 19
-40 21 -67 24 -255 3 -191 -4 -339 -15 -307 -3 6 -9 12 -14 12 -5 0 -5 -10 0
-22 5 -13 5 -32 0 -43 -7 -19 -8 -19 -8 3 -1 13 -5 21 -10 17 -5 -3 -12 -1
-16 5 -3 5 -40 10 -81 10 -70 0 -74 -1 -75 -22 -1 -16 -5 -11 -13 17 -8 26
-15 34 -19 25 -3 -8 -6 97 -6 233 -1 296 -6 317 -70 317 -67 0 -68 -5 -75
-330 -3 -157 -6 -287 -6 -290 -1 -3 -6 6 -11 19 -5 13 -7 33 -3 44 5 17 4 18
-9 6 -10 -10 -12 -19 -6 -31 5 -9 9 -23 8 -30 0 -7 -7 1 -15 19 -9 22 -19 31
-29 27 -8 -4 -15 -10 -15 -15 0 -5 -7 -9 -16 -9 -8 0 -12 5 -9 10 3 6 -3 10
-14 10 -12 0 -21 -6 -22 -12 0 -10 -2 -10 -6 0 -2 6 -20 12 -39 12 -32 0 -34
-2 -35 -32 0 -27 -2 -29 -9 -13 -4 11 -6 34 -4 50 4 24 3 26 -5 10 -6 -13 -8
83 -8 260 l2 280 28 48 c76 129 277 182 449 117z m1431 4 c65 -22 139 -95 160
-158 14 -40 17 -89 17 -256 0 -217 -6 -300 -22 -300 -6 0 -7 7 -4 16 3 8 2 12
-4 9 -5 -3 -8 -18 -6 -33 2 -15 1 -21 -1 -14 -6 16 -163 17 -163 1 0 -6 -6 -9
-14 -6 -10 4 -16 -2 -19 -16 -3 -15 -5 -12 -6 11 0 17 -4 32 -8 32 -5 0 -9
116 -11 258 -4 294 -6 302 -72 302 -62 0 -64 -9 -71 -305 -3 -143 -9 -271 -13
-285 -7 -24 -7 -24 8 -6 9 11 16 16 16 10 0 -19 -17 -34 -32 -29 -11 4 -14 19
-13 53 1 26 0 35 -2 20 -3 -18 -9 -25 -18 -22 -7 3 -19 -4 -25 -17 l-12 -22
-18 23 c-19 25 -40 20 -40 -11 0 -10 -4 -19 -10 -19 -5 0 -10 9 -10 20 0 11
-8 24 -17 27 -10 4 -22 11 -26 17 -5 6 -6 2 -2 -10 3 -13 -1 -26 -10 -34 -13
-11 -14 -8 -9 21 4 23 3 30 -4 20 -5 -7 -12 -9 -15 -4 -4 6 -5 124 -4 264 2
234 4 258 23 299 54 117 168 174 329 165 44 -2 102 -12 128 -21z m799 1 c57
-20 114 -74 141 -134 15 -35 21 -68 21 -136 l1 -90 -118 -1 c-138 -1 -137 -2
-137 100 0 70 -20 106 -58 106 -60 0 -71 -54 -72 -355 0 -139 -4 -201 -15
-230 -12 -35 -14 -36 -15 -13 0 14 -3 34 -6 42 -5 14 -10 13 -30 -9 -22 -24
-52 -35 -39 -15 3 6 -1 10 -9 10 -9 0 -16 -6 -17 -12 0 -9 -2 -9 -6 1 -5 11
-7 11 -14 0 -6 -10 -9 -11 -9 -1 0 6 -7 12 -15 12 -8 0 -15 -4 -15 -9 0 -6 -9
-9 -20 -8 -15 1 -20 8 -20 30 0 24 -3 27 -14 18 -12 -10 -14 26 -12 241 1 241
2 255 24 303 39 85 114 146 203 165 60 12 194 4 251 -15z m-1382 -116 l0 -131
-31 7 c-78 17 -155 -7 -198 -61 -19 -25 -21 -40 -21 -188 0 -88 -3 -178 -6
-198 l-7 -38 -67 0 c-46 0 -70 -4 -73 -12 -3 -9 -9 -8 -19 5 -14 19 -48 14
-48 -7 0 -6 -5 -4 -10 4 -9 13 -10 13 -11 0 -1 -8 -5 5 -10 30 -4 25 -8 195
-8 378 l-1 332 130 0 129 0 3 -77 3 -78 42 60 c51 72 102 105 161 105 l42 0 0
-131z m1550 -514 c0 -61 -13 -87 -23 -47 -3 9 -5 -5 -6 -33 -1 -44 -3 -48 -15
-32 -10 13 -28 17 -88 17 -44 0 -79 5 -86 12 -7 7 -12 8 -12 2 0 -6 5 -15 12
-22 10 -9 8 -16 -5 -30 -17 -16 -18 -16 -16 3 4 35 -1 66 -8 62 -7 -4 -8 59
-4 121 1 9 33 12 126 12 l125 0 0 -65z m-3253 -97 c-3 -7 -5 -2 -5 12 0 14 2
19 5 13 2 -7 2 -19 0 -25z m2820 -10 c-3 -8 -6 -5 -6 6 -1 11 2 17 5 13 3 -3
4 -12 1 -19z m-2040 -25 c-3 -10 -5 -4 -5 12 0 17 2 24 5 18 2 -7 2 -21 0 -30z
m2215 -5 c-6 -6 -7 0 -4 19 5 21 7 23 10 9 2 -10 0 -22 -6 -28z m245 20 c-3
-8 -6 -5 -6 6 -1 11 2 17 5 13 3 -3 4 -12 1 -19z m780 0 c-3 -8 -6 -5 -6 6 -1
11 2 17 5 13 3 -3 4 -12 1 -19z m-1156 -15 c-12 -20 -14 -14 -5 12 4 9 9 14
11 11 3 -2 0 -13 -6 -23z m1243 1 c3 -8 2 -12 -4 -9 -6 3 -10 10 -10 16 0 14
7 11 14 -7z m-3127 -16 c-3 -8 -6 -5 -6 6 -1 11 2 17 5 13 3 -3 4 -12 1 -19z
m866 -3 c-3 -9 -8 -14 -10 -11 -3 3 -2 9 2 15 9 16 15 13 8 -4z m1357 -5 c0
-5 -2 -10 -4 -10 -3 0 -8 5 -11 10 -3 6 -1 10 4 10 6 0 11 -4 11 -10z m717
-12 c-3 -8 -6 -5 -6 6 -1 11 2 17 5 13 3 -3 4 -12 1 -19z m-3194 -5 c-7 -2
-21 -2 -30 0 -10 3 -4 5 12 5 17 0 24 -2 18 -5z m1424 1 c-3 -3 -12 -4 -19 -1
-8 3 -5 6 6 6 11 1 17 -2 13 -5z m274 -17 c-10 -9 -11 -8 -5 6 3 10 9 15 12
12 3 -3 0 -11 -7 -18z m522 16 c-7 -2 -19 -2 -25 0 -7 3 -2 5 12 5 14 0 19 -2
13 -5z m931 -9 c3 -8 2 -12 -4 -9 -6 3 -10 10 -10 16 0 14 7 11 14 -7z m-4057
-16 c-3 -8 -6 -5 -6 6 -1 11 2 17 5 13 3 -3 4 -12 1 -19z m3376 -13 c-3 -9 -8
-14 -10 -11 -3 3 -2 9 2 15 9 16 15 13 8 -4z m-803 -19 c0 -2 -8 -10 -17 -17
-16 -13 -17 -12 -4 4 13 16 21 21 21 13z"/>
<path d="M4862 2220 c0 -14 2 -19 5 -12 2 6 2 18 0 25 -3 6 -5 1 -5 -13z"/>
<path d="M5466 2197 c3 -10 9 -15 12 -12 3 3 0 11 -7 18 -10 9 -11 8 -5 -6z"/>
<path d="M3648 2193 c7 -3 16 -2 19 1 4 3 -2 6 -13 5 -11 0 -14 -3 -6 -6z"/>
<path d="M4462 2220 c0 -14 2 -19 5 -12 2 6 2 18 0 25 -3 6 -5 1 -5 -13z"/>
</g>
</svg>
